<svg xmlns="http://www.w3.org/2000/svg" viewBox="0 0 720 560"><defs><linearGradient id="m" x1="0" y1="0" x2="0" y2="1"><stop stop-color="#383759"/><stop offset="1" stop-color="#a06e8b"/></linearGradient><linearGradient id="r" x1="0" x2="1"><stop stop-color="#987ce1"/><stop offset="1" stop-color="#efae66"/></linearGradient></defs><rect width="720" height="560" fill="url(#m)"/><circle cx="560" cy="117" r="48" fill="#f4d69a"/><g fill="#f6e4bd"><circle cx="129" cy="83" r="3"/><circle cx="195" cy="122" r="4"/><circle cx="470" cy="70" r="3"/><circle cx="615" cy="188" r="3"/></g><path d="M0 354q143-72 242-12t182-20 296-19v257H0Z" fill="#242735"/><rect x="79" y="298" width="562" height="18" rx="9" fill="#d2b177"/><rect x="105" y="316" width="13" height="146" fill="#817168"/><rect x="598" y="316" width="13" height="146" fill="#817168"/><path d="M113 384h494M113 418h494" stroke="#655d63" stroke-width="7"/><path d="M168 316v146M275 316v146M382 316v146M489 316v146" stroke="#817168" stroke-width="5"/><ellipse cx="357" cy="333" rx="122" ry="37" fill="none" stroke="url(#r)" stroke-width="17" transform="rotate(-10 357 333)"/><path d="M315 315l13-48 33 34 39-29 4 50q21 28 9 65-15 41-59 41-49 0-62-42-12-35 23-71z" fill="#242129"/><rect x="315" y="326" width="35" height="25" rx="9" fill="#eee9f3"/><rect x="365" y="326" width="35" height="25" rx="9" fill="#eee9f3"/><rect x="329" y="332" width="8" height="13" rx="4" fill="#745fc0"/><rect x="379" y="332" width="8" height="13" rx="4" fill="#745fc0"/><rect x="422" y="345" width="45" height="61" rx="10" fill="#8c725e"/><path d="M61 493h598" stroke="#dfcba6" stroke-width="3" stroke-dasharray="8 10" opacity=".5"/></svg>